<svg width="48" height="108" viewBox="0 0 94 108" fill="none" xmlns="http://www.w3.org/2000/svg">
<g filter="url(#filter0_d_1059_469)">
<path d="M46 12.6665C31.2966 12.6665 19.3333 24.6298 19.3333 39.3165C19.2366 60.7998 44.9866 78.6132 46 79.3332C46 79.3332 72.7633 60.7998 72.6666 39.3332C72.6666 24.6298 60.7033 12.6665 46 12.6665ZM46 52.6665C38.6333 52.6665 32.6666 46.6998 32.6666 39.3332C32.6666 31.9665 38.6333 25.9998 46 25.9998C53.3666 25.9998 59.3333 31.9665 59.3333 39.3332C59.3333 46.6998 53.3666 52.6665 46 52.6665Z" fill="#3AAE37"/>
</g>
<circle cx="45.5" cy="39.5" r="14.5" fill="white"/>
<defs>
<filter id="filter0_d_1059_469" x="0.333008" y="0.666504" width="93.334" height="106.667" filterUnits="userSpaceOnUse" color-interpolation-filters="sRGB">
<feFlood flood-opacity="0" result="BackgroundImageFix"/>
<feColorMatrix in="SourceAlpha" type="matrix" values="0 0 0 0 0 0 0 0 0 0 0 0 0 0 0 0 0 0 127 0" result="hardAlpha"/>
<feOffset dx="1" dy="8"/>
<feGaussianBlur stdDeviation="10"/>
<feComposite in2="hardAlpha" operator="out"/>
<feColorMatrix type="matrix" values="0 0 0 0 0 0 0 0 0 0 0 0 0 0 0 0 0 0 0.25 0"/>
<feBlend mode="normal" in2="BackgroundImageFix" result="effect1_dropShadow_1059_469"/>
<feBlend mode="normal" in="SourceGraphic" in2="effect1_dropShadow_1059_469" result="shape"/>
</filter>
</defs>
</svg>
