<svg width="76" height="38" viewBox="0 0 76 38" fill="none" xmlns="http://www.w3.org/2000/svg">
<path d="M3.51354 38.0002C5.63834 38.0002 7.02707 36.4353 7.02707 34.0903C7.02707 31.7305 5.63834 30.1655 3.51354 30.1655C1.38873 30.1655 0 31.7305 0 34.0903C0 36.4353 1.38873 38.0002 3.51354 38.0002ZM3.51844 36.7611C2.12971 36.7611 1.48197 35.5417 1.48197 34.0854C1.48197 32.6339 2.12971 31.3997 3.51844 31.3997C4.89736 31.3997 5.5451 32.6339 5.5451 34.0854C5.5451 35.5417 4.89736 36.7611 3.51844 36.7611Z" fill="black"/>
<path d="M11.7585 30.2643H10.1342V29.583C10.1342 28.9116 10.409 28.5463 11.1254 28.5463C11.4297 28.5463 11.6456 28.6154 11.783 28.6598L12.1265 27.4651C11.9204 27.3861 11.4935 27.2627 10.8997 27.2627C9.70726 27.2627 8.66203 27.9637 8.66203 29.3855V30.2643H7.49904V31.4491H8.66203V37.8472H10.1342V31.4491H11.7585V30.2643Z" fill="black"/>
<path d="M15.9424 37.8472H17.4096V33.1721C17.4096 32.1501 18.1211 31.4392 18.9554 31.4392C19.7699 31.4392 20.3343 31.9823 20.3343 32.8067V37.8472H21.7966V33.0141C21.7966 32.1008 22.3511 31.4392 23.308 31.4392C24.0834 31.4392 24.7213 31.8737 24.7213 32.9005V37.8472H26.1885V32.7623C26.1885 31.0295 25.2267 30.1655 23.8625 30.1655C22.778 30.1655 21.9635 30.6888 21.6003 31.4985H21.5218C21.193 30.6691 20.5011 30.1655 19.4951 30.1655C18.499 30.1655 17.758 30.6642 17.4439 31.4985H17.3507V30.2643H15.9424V37.8472Z" fill="black"/>
<path d="M30.9101 38.0002C32.554 38.0002 33.717 37.1857 34.0507 35.9515L32.662 35.6997C32.397 36.4155 31.759 36.7809 30.9248 36.7809C29.6686 36.7809 28.8246 35.9613 28.7853 34.5001H34.1439V33.9767C34.1439 31.2368 32.5147 30.1655 30.8071 30.1655C28.7068 30.1655 27.323 31.7749 27.323 34.1051C27.323 36.46 28.6872 38.0002 30.9101 38.0002ZM28.7902 33.3942C28.8491 32.318 29.6244 31.3849 30.8169 31.3849C31.9553 31.3849 32.7012 32.2341 32.7061 33.3942H28.7902Z" fill="black"/>
<path d="M35.2784 37.8472H36.7456V33.1721C36.7456 32.1501 37.4571 31.4392 38.2914 31.4392C39.106 31.4392 39.6703 31.9823 39.6703 32.8067V37.8472H41.1326V33.0141C41.1326 32.1008 41.6871 31.4392 42.644 31.4392C43.4194 31.4392 44.0573 31.8737 44.0573 32.9005V37.8472H45.5245V32.7623C45.5245 31.0295 44.5627 30.1655 43.1985 30.1655C42.1141 30.1655 41.2995 30.6888 40.9363 31.4985H40.8578C40.529 30.6691 39.8371 30.1655 38.8312 30.1655C37.835 30.1655 37.094 30.6642 36.78 31.4985H36.6867V30.2643H35.2784V37.8472Z" fill="black"/>
<path d="M50.1725 38.0002C52.2973 38.0002 53.686 36.4353 53.686 34.0903C53.686 31.7305 52.2973 30.1655 50.1725 30.1655C48.0477 30.1655 46.659 31.7305 46.659 34.0903C46.659 36.4353 48.0477 38.0002 50.1725 38.0002ZM50.1774 36.7611C48.7887 36.7611 48.1409 35.5417 48.1409 34.0854C48.1409 32.6339 48.7887 31.3997 50.1774 31.3997C51.5563 31.3997 52.2041 32.6339 52.2041 34.0854C52.2041 35.5417 51.5563 36.7611 50.1774 36.7611Z" fill="black"/>
<path d="M54.8303 37.8472H56.2975V33.2165C56.2975 32.2242 57.0581 31.5083 58.0985 31.5083C58.4027 31.5083 58.7462 31.5627 58.864 31.5972V30.1853C58.7168 30.1655 58.4272 30.1507 58.2408 30.1507C57.3575 30.1507 56.6018 30.6543 56.327 31.4689H56.2485V30.2643H54.8303V37.8472Z" fill="black"/>
<path d="M59.6402 37.8472H61.1074V30.2643H59.6402V37.8472ZM60.3812 29.0942C60.8866 29.0942 61.3086 28.6993 61.3086 28.2155C61.3086 27.7317 60.8866 27.3318 60.3812 27.3318C59.8708 27.3318 59.4537 27.7317 59.4537 28.2155C59.4537 28.6993 59.8708 29.0942 60.3812 29.0942Z" fill="black"/>
<path d="M65.8364 38.0002C67.4803 38.0002 68.6433 37.1857 68.977 35.9515L67.5882 35.6997C67.3232 36.4155 66.6853 36.7809 65.8511 36.7809C64.5949 36.7809 63.7508 35.9613 63.7116 34.5001H69.0702V33.9767C69.0702 31.2368 67.441 30.1655 65.7333 30.1655C63.6331 30.1655 62.2492 31.7749 62.2492 34.1051C62.2492 36.46 63.6134 38.0002 65.8364 38.0002ZM63.7165 33.3942C63.7754 32.318 64.5507 31.3849 65.7431 31.3849C66.8816 31.3849 67.6275 32.2341 67.6324 33.3942H63.7165Z" fill="black"/>
<path d="M75.8528 32.1156C75.5485 30.9357 74.6309 30.1655 73.0017 30.1655C71.2989 30.1655 70.0918 31.069 70.0918 32.4118C70.0918 33.488 70.7395 34.2038 72.1528 34.5198L73.4286 34.8012C74.1549 34.9641 74.4935 35.2899 74.4935 35.7639C74.4935 36.3514 73.8703 36.8105 72.9085 36.8105C72.0301 36.8105 71.4658 36.4303 71.2891 35.6849L69.8709 35.9021C70.1163 37.2449 71.2253 38.0002 72.9183 38.0002C74.7389 38.0002 76 37.0277 76 35.6553C76 34.584 75.3228 33.9224 73.939 33.6016L72.7416 33.3251C71.9123 33.1276 71.5541 32.8462 71.559 32.3328C71.5541 31.7503 72.1822 31.3356 73.0164 31.3356C73.9292 31.3356 74.3512 31.8441 74.5229 32.3525L75.8528 32.1156Z" fill="black"/>
<path d="M0 20.9H8.8223C13.4603 20.9 15.9306 18.4508 15.9306 15.1239C15.9306 12.0318 13.7426 10.1643 11.3934 10.052V9.8479C13.541 9.35806 15.1239 7.81709 15.1239 5.35767C15.1239 2.22471 12.8251 0 8.26776 0H0V20.9ZM4.36578 17.2874V11.7358H8.02577C10.123 11.7358 11.4236 12.9604 11.4236 14.6851C11.4236 16.2567 10.3649 17.2874 7.92495 17.2874H4.36578ZM4.36578 8.74575V3.57178H7.68297C9.61883 3.57178 10.7178 4.58208 10.7178 6.09243C10.7178 7.74565 9.38693 8.74575 7.6023 8.74575H4.36578Z" fill="black"/>
<path d="M21.57 20.9L23.1026 16.1342H30.5536L32.0862 20.9H36.7645L29.6462 0H24.0201L16.8916 20.9H21.57ZM24.2116 12.6849L26.7525 4.77598H26.9138L29.4546 12.6849H24.2116Z" fill="black"/>
<path d="M55.7609 0H51.4153V13.1441H51.2338L42.3208 0H38.4894V20.9H42.8551V7.74565H43.0064L51.99 20.9H55.7609V0Z" fill="black"/>
<path d="M58.6075 20.9H62.9732V14.9606L65.1208 12.3073L70.7772 20.9H76L68.2465 9.35806L75.9093 0H70.6764L63.2455 9.21519H62.9732V0H58.6075V20.9Z" fill="black"/>
</svg>
